/* XPM */
static char *_49a9cee8c5f466ed3b014bff5ac8282pbv0d7SczoCsM2MX[] = {
/* columns rows colors chars-per-pixel */
"50 50 200 2 ",
"   c black",
".  c #010000",
"X  c #020001",
"o  c #030102",
"O  c gray1",
"+  c gray6",
"@  c #100E0F",
"#  c #101010",
"$  c #111111",
"%  c #131313",
"&  c #141213",
"*  c #151314",
"=  c gray8",
"-  c #151515",
";  c #161415",
":  c #161616",
">  c gray9",
",  c #181617",
"<  c #191816",
"1  c #1A1917",
"2  c #191718",
"3  c #181619",
"4  c #1B1718",
"5  c #19171A",
"6  c #181818",
"7  c #191919",
"8  c #1A1819",
"9  c #1B1A18",
"0  c #1B191A",
"q  c #1A181B",
"w  c gray10",
"e  c #1B1B1B",
"r  c #1C1819",
"t  c #1C1B19",
"y  c #1D191A",
"u  c #1C1A1B",
"i  c #1E1A1B",
"p  c #1B191C",
"a  c #1D1B1C",
"s  c #1C1A1D",
"d  c #1D1B1E",
"f  c gray11",
"g  c #1D1D1D",
"h  c #1E1C1D",
"j  c #1F1D1E",
"k  c #1E1C1F",
"l  c #1E1E1E",
"z  c gray12",
"x  c #201E1F",
"c  c #1F1D20",
"v  c #211F20",
"b  c #202020",
"n  c gray13",
"m  c #222021",
"M  c #232122",
"N  c #222222",
"B  c #232323",
"V  c #242223",
"C  c #252324",
"Z  c gray14",
"A  c #252525",
"S  c #262425",
"D  c #272526",
"F  c gray15",
"G  c #272727",
"H  c #282627",
"J  c #292728",
"K  c #282828",
"L  c gray16",
"P  c #2A2829",
"I  c #2A2A2A",
"U  c gray17",
"Y  c #2C2C2C",
"T  c #2D2D2D",
"R  c #2E2C2D",
"E  c gray18",
"W  c gray19",
"Q  c #313131",
"!  c #323232",
"~  c gray20",
"^  c #343434",
"/  c #363435",
"(  c gray22",
")  c #393939",
"_  c #3C3C3C",
"`  c gray25",
"'  c #424041",
"]  c #444444",
"[  c #464646",
"{  c gray28",
"}  c #494748",
"|  c #4E4E4E",
" . c gray31",
".. c #504E4F",
"X. c #505050",
"o. c #535353",
"O. c gray33",
"+. c #555555",
"@. c gray34",
"#. c gray35",
"$. c #5B595A",
"%. c #5A5A5A",
"&. c #5B5B5B",
"*. c gray36",
"=. c #626262",
"-. c #656565",
";. c #676566",
":. c #6C6C6C",
">. c gray44",
",. c gray46",
"<. c #7B7B7B",
"1. c #7E7E7E",
"2. c gray50",
"3. c #858384",
"4. c #848484",
"5. c gray52",
"6. c gray53",
"7. c #888888",
"8. c #8B8B8B",
"9. c #8D8B8C",
"0. c #8D8D8D",
"q. c #8F8D8E",
"w. c gray56",
"e. c #929292",
"r. c #939393",
"t. c #959394",
"y. c #959595",
"u. c #979797",
"i. c #989697",
"p. c #999798",
"a. c #989898",
"s. c #9B999A",
"d. c #9A9A9A",
"f. c #9B9B9B",
"g. c gray61",
"h. c #9D9D9D",
"j. c #9E9C9D",
"k. c #A2A2A2",
"l. c #A5A5A5",
"z. c #A8A6A7",
"x. c #AAAAAA",
"c. c gray67",
"v. c #ACACAC",
"b. c gray70",
"n. c #B4B4B4",
"m. c #B6B4B5",
"M. c #B7B7B7",
"N. c gray72",
"B. c #BBBBBB",
"V. c #BCBCBC",
"C. c #C1C1C1",
"Z. c #C3C3C3",
"A. c gray77",
"S. c #C5C5C5",
"D. c gray78",
"F. c #C9C7C8",
"G. c #CECECE",
"H. c gray81",
"J. c gray82",
"K. c #D5D5D5",
"L. c #D7D7D7",
"P. c #D9D7D8",
"I. c gray85",
"U. c gainsboro",
"Y. c #DDDDDD",
"T. c #DFDFDF",
"R. c gray88",
"E. c #E5E3E4",
"W. c #E6E6E6",
"Q. c #E7E7E7",
"!. c #E9E9E9",
"~. c #EBE9EA",
"^. c #EAEAEA",
"/. c gray92",
"(. c #ECECEC",
"). c gray93",
"_. c #EEEEEE",
"`. c #EFEFEF",
"'. c gray94",
"]. c #F1F1F1",
"[. c gray95",
"{. c #F3F3F3",
"}. c #F4F2F3",
"|. c #F5F3F4",
" X c #F4F4F4",
".X c gray96",
"XX c #F6F6F6",
"oX c gray97",
"OX c #F9F7F8",
"+X c #F8F8F8",
"@X c #F9F9F9",
"#X c gray98",
"$X c #FBFBFB",
"%X c gray99",
"&X c #FDFDFD",
"*X c #FEFCFD",
"=X c #FFFDFE",
"-X c #FEFEFE",
";X c #FFFEFF",
":X c white",
/* pixels */
". . . . . . . . . . . . . . . . . . . . . . . . . . . . O . . . O . . . . . . . . . . . . . . . . . ",
"0 0 0 0 u u u u h h h h h h h h h x x h x h h x v D m h a a v h > z n n n m z g h h a a 0 a a 0 0 0 ",
"2 2 2 0 2 0 0 0 h a a h a a a a x h h x h x h h h h h x h x V a z z g g e > 0 z a a 0 0 0 0 2 0 2 2 ",
"0 u u u a a h h h x h h h x h x v v v v m m m m C h v m V v v h n g g z m n h h h h h h a a 0 0 a 0 ",
"2 0 0 0 u u a a h h h h h h x h x v z m z m n z m m N m a a v C z n N n h 0 a a h a h a 0 0 0 0 0 0 ",
"0 0 0 u a h h h x h h x v x x x v m m n m m m m h m m h V D v x n n n B B m x m h h h h h a a a 0 0 ",
"0 u u u a h h h h h h h h v v x m n n n z n m n N B N z D B 0 h > > > > g m v u h h h h h h h a 0 0 ",
"u a a a h h h h x h v x v m m m m m m N m N N N N m B N B z m { c.Z.v.*.n > C m h v h v h h a a 0 0 ",
"u u u u a h h h v v v v m m m m N N N N N N N B B z n F N n ` !.-X@X-X-X8.- C m v v h a h a 2 h a 0 ",
"u u a a h h x x x v v v m m m m N N N N N N B B n K N N K = w.-X'.XXXX[.@X%.& v h h a a D h h a a a ",
"u a h h h h x v v v v m m m V m N N N B B B B B B B n B B = l.%X_.|.XX_.-Xk.+ J m J v h a 0 h v a a ",
"u a x h h h x m v v v m m V m V N N N B B B B B F n n K m = 5.-X[.$X[.[.%Xs.- h 0 2 m m h 0 v a 0 a ",
"u a x h h h x m v v m m m m V m N N N B B B B B N B B N B e @.'.XX_.XXXX$XJ.t.3.} a C h C 2 m a a 0 ",
"u a h h h x x v v m m m m V m V N N B B B B B F N F K n F U + d.-X[.@X[.'.$Xz.9.s...h h h v 0 v a a ",
"h h h h h x v v m m m V V m C V B B B B B F F B K B F B N U + w.-X_.@X$X/.[.-X-XF.q.I v h D 2 h h h ",
"h h h x v v v v m m m m m V V V B F B B F B F F K B B I F > :.[.oX{.@X_.@X|.}.|.~.F...2 m a v h h h ",
"h h x h h v v v m m N N B B B B N K B F B B K K K B K K > <.@X{.'.XX{.@X{.'.{.XX[.@X%.- m h m h h h ",
"h h h x v v v v m m N N B B B B B B K z F K U B I F K g 2.@X@X[.[.XX[.R.-X#X{.[.XX_./ 0 C v a v h h ",
"h h x h x m v v m N N N B B B B B B n E K B B K I F N u.-X/.[.'.@XR.@.( N.XX@X-X@X4.- m C h m h h h ",
"h h h x h v v m B m N N B B B B I n K K n U I U F B a.%X{.@X{.#XY.{ > n > X.<.7.+.0 v v B h h h h h ",
"h h h v x m v m m C m m B B F F n K U F U B B K D c.%X'.{./.-XJ._ = I B N g = % h D m 0 m D v h h h ",
"h x h x c v m m B m B B B B B B B F B K B ! B B k.%XXX{.'.-XD.( e ! B N E N I B z m h G m 0 m m h h ",
"h h x x v v m m m B N B B B F B K B F K K n I n.-X{.'.{.%XC.T n I K B B n B B N B n D h C v a m h h ",
"h x h x v m m m B m N B B B B B B K K K B U V.%X[.{._.%XN.I K D I B K B K z K F B z D n h D h v h h ",
"h x h x m m h C m D B m B D B B B U B n ~ A.-X_.{.{.-Xx.D B I K F F B B F B B B N m m m v v v x h h ",
"h h h v m v v m m h B B K B N K U B m ] H.%X/.@X{.%Xu.n K U K K F F F B B B B B N m m m v v v x h h ",
"h h h h v m m m C m h - g h F B I + X.R.%X'.#X[.%X7.g K K U B B F F F B B B B B N N m m v v x x x h ",
"h x v m h m m m h a | :.@.~ g n > *./.@X@X'./.@X7.= I T I F K F F F B B B B B B N N m m v v x v h h ",
"x h x x x m m h C u.-X-XW.Y.1.K ,.Y.!.[.^.[.%X<.> E K F B B U K F B B B B B B B N N m m v x x x x h ",
"h u h x h m m 0 ;.-X[.OXg.o.V.V.v.r./.{.%X'.>.> U K F F U F B B F B F B B B B B N N m m v x h h h h ",
"h u h h h V m * j.-X_.XX{.n.1.g.l.{.{.@X_.-.= U K K F F F B I B B B B B B B B B N N m m v v x h x h ",
"x u x x h C m % p.-X[.@X{.-X-X@X-X[.{.W.o.> K K B K B K F U B B D B B B B B B B N m m m v v h x h h ",
"h h h h h m z 7 +.%X'.{.[.{.'.{._.@X[.%.% I K B F F F B D B B F B m B C C C m C m m m v h v h h h h ",
"u h x h h m z h e d.-XXX-X%X#X{.XX[.[.[ m C B K B B F B B D B B B D C m m C m C m m m m v h v h h h ",
"2 a x h h h z m g z >.G.I./.[.@XXXXX-XA.m K h B B B B B B B B B C m C m m C m m m v v v h h h h h h ",
"u h h h 0 h h h B n % N I G.-X'.XX[.XX[.o.> F B B B B B B N N N C C C m m C m m m m v h v h h h a a ",
"u a a a a h h x e n N n m K.XX{.OXXX'.-X=.+ I D B B B B B m N N m m m C m m m m v v h v h v h h a a ",
"0 0 0 u h x x x g D n n = r.-X[.'.`.|.@X&.z n m B B B B B B B m C m m m m m v v v v v m h h h h a a ",
"0 0 0 a h h x h g h z N g ! L.-X-XOX-XI.I h V V B D m B m C m m m m m m m m v v h v h h h h h h u u ",
"u u a h h a a a m n g m n - ~ k.P.E.m.' - D m C m B m m B m m C m C C m m m v v h h h h h a a a p a ",
"u u u u u x u x h h h n n h e > T H x h x m m m m m m m m m V m m m m m v v h v h h h h h a a a a a ",
"u u u u u u u x h h h m n m n n m h h x v V V m m m m m m m m m v v v m v v v v h h h h a a a a 0 0 ",
"u u 4 u u x u u h h h h n h z m h m m V m m v v m m m m m m m m h v h v h h v h h h h h a a 0 a 0 0 ",
"4 x u u u u u x h h h h a h h h m m m m v x x v m m x m m m x m h v v v h v h h h h h h 0 0 0 0 0 0 ",
"4 4 x x u u u u 0 h h h h h h c h h h h x h v h h m h m m h m v h h v h h h h h h h a a a 0 0 0 0 2 ",
"4 x 4 4 u 4 u u 0 u h h h h h h h h h x v v h h v h h h h x h h v h v h h h h h a a a a 0 0 0 0 0 0 ",
"x 4 4 x u x u u u u h 0 u u h 0 h x x h h m h h v h x h h h h h h h h h h a a h 0 a a 0 0 0 0 0 0 2 ",
"* 4 4 4 u u 0 0 u u 0 u u h h h h h h h h h h m h m h x h h h h h h h h a h 0 0 a 0 0 a 0 0 0 0 - 3 ",
"x * x 4 * 4 r r 9 9 x 1 x x r r x a c c s c s c s c p a g p g e h c c c p c c p p p p p p p p 3 3 3 ",
"* x 4 4 ; 4 r t 9 9 1 x x < 4 4 s a c a s c c c s s a p e g e g c a c p p p p p p c p p p p 3 3 3 3 "
};
