/* XPM */
static char *_b58bb62967044109c88c539d1e26fe6OOVhM9knco0gCGfy[] = {
/* columns rows colors chars-per-pixel */
"50 50 25 1 ",
"  c #368300",
". c #398600",
"X c #3D8A00",
"o c #418E01",
"O c #428E09",
"+ c #459203",
"@ c #489605",
"# c #4B9906",
"$ c #469309",
"% c #49960A",
"& c #4D9B0B",
"* c #509E0C",
"= c #4B9710",
"- c #4E9B11",
"; c #519E11",
": c #51A007",
"> c #53A10D",
", c #58A70E",
"< c #59A80E",
"1 c #55A312",
"2 c #58A614",
"3 c #5AA914",
"4 c #57A418",
"5 c #59A61A",
"6 c #5CA91A",
/* pixels */
"oXo$$X+;%XX%$oX%;%.X++Oo;&o.o%$.%*$XX$++X%-X.X%+.+",
";o..X+&44&X  o%*;;%o..O&11;$  X%*65%X XX$564@. .&&",
"+#12*+oX.+&21*+oXo+*,,%XoXX%23&+XXX+*2>>XX.X@1>2oX",
"@+#*>*###+#>**+@+###:**$@###@**&@@@@#**#*@@#@#>#;*",
"*++&1>&:*#++#2>>,&Xo&*11::&++*>>*>>@X+*1>#:>++*2**",
"#+@+o.+**%+#++X+##%&%oXX##%%#++X+&*@@%@XX##@@#@Xoo",
" .o##oXo  X##oX$XX X@@+X+X .+#+o$X..X+%+X$$  +&+oX",
"o%;44;o O$%124%XXO$&2>;=.o$=*42=XXX$&144& .$+-54=%",
"X.%;=+.+%.X=;$Xo#o.O--%X++oX=-%$X@@.X--%XX%X.%;&$X",
"1X. .#%26@...X@&1&+..XX$>>=o..XX&22%. XX@*2*X..X$$",
"@o%@+@+&++@@@++#&%++++@$*+@+++####@++@@@X>*+@#+X+$",
"+#,3:#X+o#*><*+XX+#,33#.+o+*<3*++XX@>2:#+XXX@1<3++",
"@oo#11&&#+X+>1***#++@&>1##+o+&>>#*&+X+*2,##>+X##>>",
"2&#&&##&2>%#&#@&,&%@#&&&:2*+#&#&#12&#%&%##1,@&>*@#",
".Xo+X.X$XXo+o.Xo@X.o+X. ++XXX+X.++X.X@XXX++X.X$ .X",
".+%11%+.X.+;1;%o..X&11&$+..$=11%XXXX%-4;+X..+&-4%$",
"+o*1;&XX@++1;1&.+%X&1>=+ #$$;>&&XX$X%>1*% X@X>1*--",
"o.++o+o&%XX%oXX@#+.++o+o#&X o++o%@%XXX@XX#1X X@@XX",
";oX.X+&46O...o+462$X. +=11>+X X%124@XXXX#,3>+X .&&",
"O+;4*$X+X+&21;XXXoo;61%.+XX#12*oXXX@12-*XXXX@>4>XX",
"@+*>*#++o#@*>>&@+%%#*&&%##%$#*1#%%X+#>>*%@%%@&>**#",
"*++#*1>*1*X+&>>11&+o#>1;&&-$+&11-41#XX*24*->#X*>>1",
"&$#%+X$%%%+&$XX@&#&$#ooo##&#+#X.#:$&&-$XX@#++#*XXX",
" .o&$Xo$. X%$@.+o .X%+Xo@. .+&+oXX  X%*XX@X XX@$XX",
"o#>>1*+.+X#2>1&..++>1,1$.XX-414&XXXX>361;XXXX*214-",
"XX$**+Xo#XX&##+X@@.+&##XX&o.%&#@XX;XX###XX&XX#&;XX",
"%X.XXo%61$...X$;1&..XX$+>3@..XX.#36XXXXXX32#XX XX#",
"&$$$$+$&%&$%%+o#&&@+++%$>##@++&+###X%X%#X###&#X###",
"o@11*&oX.+#11*+o +$;62#.X +;12>+XXX1231*XXXX#>32XX",
"#+#&;*&>##+@&1&&>&+X+>11&1%.+&*11-#XXX1;2;*>X@:#3>",
"1++%&&#&41+##&#&1*&%##%&&11+#&@%X643X**#&:>1#X*&&&",
"XX++o..#XXX@+X.o+XX+@+..@+oX+#. X&XXXXXX @XXXX#  X",
"XX&;;&oXXX+;;*%o.XX%*1;$XX.o%11$+XX.+&11@XXXX%1*%X",
"o+&11&X.+o+14;$Xo$$%;;&% +$&;;1&XX+o&>1&+.X@%#11&%",
"ooo+oo+&%oXooXo@&+.o%+oX*;. @@+X+&&XX+@+X**X.X@+XX",
"&+X .+#32#..Xo#>21+. .+*14;o...+>31+X.XX@>6*@X. &-",
"o+*2*@XoX+*21#oXo$#><:+.oXo@*3>+.X++#,>&XXXX%*>2XX",
"#@**>#+%o+#&*&##X$+#>>*#%+#@#;*+%#++#:>&@%%+@*>#*%",
"*+o#11**2#o+;1*&3>+o&*1>**&++&>3>1&#+%&>2***@X#>1>",
"#+&%ooo&##%%%XX@#&$%%+oo#&&+%%XXo&&&+#@XX+**+@&XX+",
" .+#+oX+ .oo#$X$.. o@@oX$. X+##X%X .X##XXXX..X##XX",
"$+&41;o $o%221$oXo$&,,*% Xo%14>&.X$+@>21-XXX%-14;=",
"XX%;&$X+%.o==&oo#o.+=;#X+%X.$*#+X++X+&*%X+@X.%1%+X",
"#X...+&1>+X..X+*1=+.X.X+*1&XXXXo*42X..XX@-4&X...++",
"&+#++++#@#@+#++&-;+++o#%;=&+++@@@-*@+@+@+&&%%++@%%",
"o+13>@o+.@#:2&+X.o+13,#.oXo&12*oXXX+#<:>.@XX#4,>oX",
"#++&*>*>#@+#*&*#*&+o@#*>&*$o+&>1##*@+#:>1&#&@+#:2>",
">+#&&###2#+&#@>#1;####&##2;+##@#**2#+@*#&@11++:&##",
"Xo++X.+$O.o$@X.o$XXO++X.%oXO$+X.+XXX+@+XX+$XX=+XXX",
".o%;*$$X..O&*&o$XXX$*&%$o. O&;*$$X.X$%&&+XX..=-1%$"
};
