/* XPM */
static char *e118dc71e3cb4fedc5a3c8e66ee85e8dOEoKbjSC0Vq5PolQ[] = {
/* columns rows colors chars-per-pixel */
"50 50 159 2 ",
"   c #030101",
".  c #0A0304",
"X  c #0D0608",
"o  c #0E090A",
"O  c #100709",
"+  c #120B0C",
"@  c #160E11",
"#  c #180E11",
"$  c #151112",
"%  c #1A1214",
"&  c #1D1619",
"*  c #1C1819",
"=  c #221B1D",
"-  c #271E21",
";  c #262324",
":  c #2A2325",
">  c #2C292A",
",  c #332C2C",
"<  c #372E31",
"1  c #373334",
"2  c #3B3435",
"3  c #3B3837",
"4  c #3D3638",
"5  c #3C393A",
"6  c #403739",
"7  c #423B3C",
"8  c #453E40",
"9  c #464042",
"0  c #4B4546",
"q  c #4C4748",
"w  c #4D494A",
"e  c #504748",
"r  c #534D4D",
"t  c #53504F",
"y  c #544E50",
"u  c #594F51",
"i  c #555251",
"p  c #5A5254",
"a  c #5A5957",
"s  c #5B5758",
"d  c #635A5B",
"f  c #61605E",
"g  c #665D60",
"h  c #656363",
"j  c #6C6465",
"k  c #6C6867",
"l  c #6D6668",
"z  c #6E6A6A",
"x  c #70666A",
"c  c #726B6D",
"v  c #786F72",
"b  c #767273",
"n  c #797575",
"m  c #7C7A7A",
"M  c #847D7E",
"N  c #867E81",
"B  c #887F82",
"V  c #858282",
"C  c #8B8485",
"Z  c #898886",
"A  c #8D8688",
"S  c #8F898A",
"D  c #908589",
"F  c #928C8D",
"G  c #948F90",
"H  c #988F92",
"J  c #959393",
"K  c #999595",
"L  c #969896",
"P  c #999997",
"I  c #9B9798",
"U  c #969A99",
"Y  c #9C9C9C",
"T  c #A19D9D",
"R  c #9EA09F",
"E  c #A2A09F",
"W  c #A39FA0",
"Q  c #A89FA2",
"!  c #9FA1A0",
"~  c #A5A2A2",
"^  c #A9A4A5",
"/  c #A9A8A6",
"(  c #ACA6A8",
")  c #ABA7A8",
"_  c #ACABA9",
"`  c #AFABAA",
"'  c #AFADAE",
"]  c #AEADAC",
"[  c #ABA9A9",
"{  c #B1A7A9",
"}  c #B0ACAB",
"|  c #B1ADAD",
" . c #B0AFAD",
".. c #B0AEAF",
"X. c #B3AFAE",
"o. c #B2ACAC",
"O. c #B1B0AE",
"+. c #B2B1AF",
"@. c #B2B0AF",
"#. c #B1AFB0",
"$. c #B5AEB0",
"%. c #B8AFB2",
"&. c gray69",
"*. c #B3B2B0",
"=. c #B5B1B1",
"-. c #B7B3B2",
";. c #B6B1B2",
":. c #B6B1B2",
">. c #B9B3B5",
",. c #BAB6B5",
"<. c #B9B4B4",
"1. c #BCB8B7",
"2. c #BCB8B7",
"3. c #BEBBBC",
"4. c #C1BCBD",
"5. c #C3BFC0",
"6. c #C6C0C2",
"7. c #C5C3C2",
"8. c #CAC3C5",
"9. c #C9C9C7",
"0. c #CFC6C9",
"q. c #CCCBCC",
"w. c #D2CDCD",
"e. c #D1D0CE",
"r. c #D3CFD0",
"t. c #D4D1D2",
"y. c #DCD6D6",
"u. c #DEDAD9",
"i. c #DED9DA",
"p. c #E0DCDB",
"a. c #E1DDDC",
"s. c #E3DFDE",
"d. c #E2DEDD",
"f. c #E5DFDF",
"g. c #E2DCDD",
"h. c #E2E1DF",
"j. c #E4E0DF",
"k. c #E2E1DF",
"l. c #E1DFE0",
"z. c #E3DFE0",
"x. c #E5DFE1",
"c. c #E2DFE0",
"v. c #E8DFE2",
"b. c #E1E1E1",
"n. c #E2E0E1",
"m. c #E3E2E0",
"M. c #E3E1E2",
"N. c #E2E2E2",
"B. c #E5E1E0",
"V. c #E4E0E1",
"C. c #E6E2E1",
"Z. c #E7E1E3",
"A. c #E6E1E2",
"S. c #ECE4E5",
"D. c #EFE9EB",
"F. c #EEEAE9",
"G. c #F0ECEB",
"H. c #F0EAEC",
"J. c #F5EFEF",
/* pixels */
"                                                                                                    ",
"R Y Y W ! ! R Y E E R U ! ] k   k ! ! U Y ~ Y R R R R Y Y R Y Y Y ~ ! ! ! ! ! Y > = Y ! W ! ! ! ! ! ",
"R Y Y Y R ! Y R T P T E Y ~ h X h ~ ! ~ T Y T T Y R T R Y R R R ! I Y Y ~ U ! W ; % Y W Y Y ! ! R Y ",
"Y Y Y I I U Y U T T T E P / j   z ~ U ~ T P E T Y Y T Y T Y W Y ! Y ~ I Y I W W : : G W W Y Y I Y Y ",
"E E E E Q ~ ~ ~ E E E E T { x . h #.T E ^ ^ E E E E E E Q Q ~ ~ Q W W W ( Q ' ( - * ! Q W W [ ~ W Q ",
"F F H F F F G S Z F F F F T f . g J F F S F F S F F H F F F F D G F G G H B H B > = A G G F G S G D ",
"O + o + o + o X = + . O . O . . . o O + . + o o + O o O o o o o O @ # @ X X & + X   + o + o o + o o ",
"r r r r t t t 9 X , u u u e u u y i t r r i e t r u r t r t r r p - @ 8 s p 8 y y s y w s y y w y y ",
"j.j.j.k.j.u.F.` X k G.j.j.j.j.u.j.k.j.k.j.b.x.z.j.j.j.k.j.j.j.j.H.y + 6.H.M.Z.M.n.n.n.M.n.M.M.M.b.b.",
"X.X.-.E -.} 4.B   i 2.} } } 4.X.O. . .O. .O. .#. .X. . .O.O.}  .>.8 @ I %.' #...' #.#.#.#.#.#.#.&.&.",
"P P E P P P P M   r E E P P T K P P P Y Y P I Y E T P P P E R P ! 5 @ A W I Y W I I I U U Y Y U U I ",
"E P E E E E E M . e T T T P E T E E Y E E T R R E P E E E P T E [ 9 X V Q ! ! H Y W ! Y ! Y Y Y ! ! ",
"P R E E P T E M   t { T T K E P Y Y Y Y Y Y Y Y Y U Y Y P E T P Q 8 X G W U ! [ Y Y Y U Y Y Y Y Y ! ",
"E E E E E E } B . r { E E E { E ^ ~ ^ ~ ^ ~ ^ ~ ^ ^ ^ / E E ^ ^ ..8 + G ' ) ! ! Q ~ Q ) ~ ) ) ~ Q ) ",
"e 0 0 0 e 0 e 6 . : u e e 0 0 e q 0 0 0 q q q q q q 0 0 0 0 0 0 8 > @ 8 8 8 w w w w 8 w w w y 8 w w ",
"o X o X O X . + % + . . + . . O X X X X X X . . X X o X o X X o X + @ + + @ X o X o o X X X X X o X ",
"%.>.>.%.>.*.*.&.-.,.-.*.X.-.-.@.=.<.X.X.4.d   A 4.%.%.>.>.>.#.=.#.#.>.#.>.#.#.#.>.>.#.>.3.%.( & 8 >.",
"r.r.r.r.t.t.e.e.e.e.e.e.e.e.e.e.w.e.t.w.k.z . Q p.w.r.t.r.t.r.t.r.r.r.r.t.t.t.r.t.q.t.r.5.t.5.= 0 y.",
"R R R R R Y R R E R R P E E E P E P T P ! a   b ^ Y Y Y U R Y Y Y Y Y Y R U R U U ! ! Y R Y G $ 1 ^ ",
"I I U Y Y Y U R R R L L R P P R Y E P Y ! t o m ~ U Y R R ! U R Y Y ! Y U ! U ! U Y U R U ! J $ 7 T ",
"R Y Y Y R R R R R R R R E E R P P E T E E t   m Q Y Y Y R R U Y Y ! Y Y Y Y Y Y ! Y U Y Y Q G o 1 E ",
"Q Q ~ ~ ~ E ! ! R E E R E E E E / Y E E / a   M [ ! W ! R ! ! R ! Y ! ! ! ! ! W ! ! W W W ) G * 1 { ",
"F F F F F F F F S S S S F D D H S F F F J e o c J F F F F F G S G F F G F G F F B B G G N H B % 2 J ",
"+ + + + + + o + + + + O O + + % o @ O @ + . . o @ X + + X + + X + O X O X X O @ & = + + # X # X . + ",
"p p p p p u p p p s p p u d 6 . 2 d y u p p p p p p p u u u u p p p p p y p p p & # u p p u u s u u ",
"x.v.c.c.x.g.g.g.a.u.p.p.p.S.F . F S.i.y.i.i.c.i.g.g.c.c.c.g.g.g.i.c.c.g.g.g.g.x.< - r.c.x.c.v.i.p.a.",
"Q ( ( [ ) ) ) [ ] / _ _ E %.v . x 3.W ) ..Q [ ' ) ) [ [ [ [ ) ) [ [ ) ) ) ( ( ( - - Q ..( { ) ' { ( ",
"I Y Y U I ! U U P P Y P T T f   g W Y I Y U Y I U Y U Y Y Y I Y Y Y I Y Y Y ! I > = Y Y L I U I Y T ",
"! Y Y Y ! Y R Y E E Y Y E _ j . k ^ T Y I ! ! Y Y Y Y Y Y Y Y Y Y Y Y Y Y Y W ! - * I ! R W R W Y Y ",
"Y Y ! ! ! I R Y T T Y T P E k . h / K Y ! I I ! Y Y ! ! Y Y W Y ! ! Y Y W W W W > : G ! P Y U R T Y ",
"W W W ~ W W W ~ E E E T E o.x . j { ^ T Q Q ) Q Q Q Q W W Q Q Q W ~ Q W W W Q Q - & ! Q ^ ^ ~ ~ Q ~ ",
"4 4 4 4 5 4 4 5 6 6 6 6 6 7 - . , 6 6 6 1 8 < 4 5 5 4 6 6 6 6 6 6 7 6 6 6 6 6 6 # & 1 7 4 1 1 5 5 1 ",
"$ + $ @ @ O = . . + @ @ @ $ @ * $ % # # # @ $ $ $ @ @ @ # # # # O # X # $ % + + & % # $ @ $ @ $ $ $ ",
"3.3.5.3.4.4.4.T . d 8.4.5.4.3.2.5.5.5.3.4.4.3.3.5.5.3.3.4.4.5.5.5.8 O Q 8.,.2.7.3.4.3.4.3.3.3.3.3.4.",
"q.q.q.q.q.w.t.T . d a.7.q.q.q.q.q.q.q.q.q.q.q.q.q.q.q.q.q.q.q.q.y.r O >.w.9.q.q.q.q.q.q.q.q.q.q.q.q.",
"U U L U K J ^ n . 0 [ P Y U L R U U U U U U U U U U U I U I I I Y 5 X A Y P W P P P Y P I I I U Y U ",
"R Y T E Y K Q M X y ) W R W Y Y R R Y Y R R Y Y ! R ! R U R ! Y ^ 5 $ Z E E Y ! ! Y Y Y R Y W Y Y Y ",
"Y P P T T P T M   y Q I U Y ! Y Y Y U R U Y Y Y R U R Y U U U ! ^ 3 o Z E P Y P Y Y Y U Y Y Y Y Y P ",
"^ Q ^ T E { { C   p { Q Q W Q ) ^ ^ ~ ^ ~ / ~ ~ ~ ~ ~ ~ ) Q Q Q ^ 6 @ G _ ~ ~ ~ Q ~ ~ ) ~ ^ Q ) ^ / ",
"B N C M B M B x O q A N N A N N N V N V N N B N N N N N N N N N A 1 $ b V M V V V V V V V N N N B M ",
"  . . . . . . . . .   . . . . . . .   . . O # X . . . . . . . . . . . . .   .     X   X X X   @ O . ",
"j j j j j l l l l l l l l l l j j j c x j 7 + e x j x j j x j k j l k l l l l j g z l c g j j @ : b ",
"h.h.h.h.a.V.l.l.c.l.l.l.l.l.l.l.j.S.u.u.J.c    .S.j.j.j.a.f.a.k.l.v.x.x.x.x.v.v.Z.l.g.v.f.S.w.# u j.",
"/ / / / / / ) ^ ) ) ) / / / / / E E _ _ X.a . M @./ / ~ ^ / / / ^ ) ) ) ( ) ^ / [ ) ..Q Q o.Q @ 2 o.",
"Y Y Y R Y U R Y Y I I Y U U Y Y R P P P / t   m ~ P P P Y P P L Y I I T Y Y T Y T K P P T T D # 5 T ",
"Y Y R Y I R R R Y ! Y W ! Y Y ! E Y E P E a   n ~ Y Y R Y E R R W R W R Y Y Y T K E T T I T K % < ~ ",
"T T T T Y W ! ! Y Y W I Y W Y ! Y P E Y ~ a   m E P Y T Y Y P Y R I I R Y R Y R T E E R R E J o 3 / ",
"T E T T W W W W W W W W W W W W T E T T _ t . M ` T T E E E Y E R W R W T R R E E P E P E E J % 1 ~ ",
"6 2 3 3 3 3 3 3 5 5 5 5 5 5 4 5 5 5 1 5 7 = @ > 5 5 5 5 5 5 5 5 4 4 5 5 5 5 5 5 5 5 5 5 5 5 1 $ = 1 ",
"                                        X     X                   .                       . .       "
};
